<svg width="25" height="20" viewBox="0 0 25 20" fill="none" xmlns="http://www.w3.org/2000/svg">
<path d="M12.341 1.65429C15.1143 -0.627558 19.4 -0.551821 22.0718 1.90098C24.7424 4.35486 24.8345 8.2629 22.3505 10.812L12.3386 20L2.32909 10.812C-0.154984 8.2629 -0.0617123 4.34837 2.60772 1.90098C5.28189 -0.548575 9.55936 -0.630804 12.341 1.65429ZM20.4 3.42979C18.6291 1.80469 15.7719 1.73869 13.9183 3.26425L12.3421 4.56044L10.7648 3.26533C8.90528 1.73761 6.05403 1.80469 4.27834 3.43195C2.51918 5.04407 2.43063 7.62455 4.05165 9.32971L12.3398 16.937L20.6279 9.3308C22.2501 7.62455 22.1616 5.04732 20.4 3.42979Z" fill="#97A2AC"/>
</svg>
