<svg width="176" height="14" viewBox="0 0 176 14" fill="none" xmlns="http://www.w3.org/2000/svg">
<path d="M21.6488 0.184401C21.5809 0.184401 21.5211 0.229506 21.502 0.295135L19.031 8.80017C18.9884 8.94682 18.7824 8.94816 18.738 8.80208L16.1465 0.293225C16.1268 0.228555 16.0675 0.184401 16.0002 0.184401H10.5683C10.5011 0.184401 10.4418 0.228555 10.4221 0.293225L7.83062 8.80208C7.78613 8.94816 7.58016 8.94682 7.53756 8.80017L5.06655 0.295135C5.04748 0.229506 4.98768 0.184401 4.91973 0.184401H0.153078C0.0490222 0.184401 -0.0246644 0.286693 0.00770211 0.386212L4.10554 12.9861C4.12611 13.0494 4.18477 13.0922 4.25091 13.0922H11.0698C11.1381 13.0922 11.1982 13.0465 11.2169 12.9804L13.1371 6.18191C13.1793 6.03279 13.3893 6.03279 13.4314 6.18191L15.3517 12.9804C15.3704 13.0465 15.4304 13.0922 15.4988 13.0922H22.3177C22.3838 13.0922 22.4425 13.0494 22.463 12.9861L26.5609 0.386213C26.5932 0.286693 26.5196 0.184401 26.4155 0.184401H21.6488Z" fill="#121212"/>
<path d="M32.8991 0.338333C32.8991 0.253319 32.8306 0.184401 32.7461 0.184401H28.3065C28.222 0.184401 28.1535 0.253318 28.1535 0.338332V12.9383C28.1535 13.0233 28.222 13.0922 28.3065 13.0922H32.7461C32.8306 13.0922 32.8991 13.0233 32.8991 12.9383V0.338333Z" fill="#121212"/>
<path d="M34.775 8.53759C34.6905 8.53759 34.6219 8.60857 34.6237 8.69357C34.7025 12.3976 37.6141 13.2766 42.7807 13.2766C48.019 13.2766 50.9393 12.373 50.9393 8.81419C50.9393 5.43972 47.8182 5.08936 42.7807 4.88653C40.0064 4.77589 39.5501 4.79433 39.5501 4.29646C39.5501 3.79858 40.0064 3.68795 42.2331 3.68795C44.3676 3.68795 45.4651 3.81303 45.6256 4.36553C45.6493 4.44713 45.7147 4.51773 45.7992 4.51773H50.2388C50.3233 4.51773 50.392 4.44732 50.3896 4.36234C50.3021 1.17875 47.502 3.79282e-06 42.5982 3.79282e-06C37.5606 3.79282e-06 34.8045 1.21702 34.8045 4.05674C34.8045 7.06241 37.013 8.02128 42.7807 8.20568C45.774 8.29787 46.1938 8.37163 46.1938 8.92482C46.1938 9.40426 45.774 9.58865 42.9632 9.58865C40.204 9.58865 39.4825 9.23264 39.3809 8.69079C39.3653 8.60725 39.2991 8.53759 39.2146 8.53759H34.775Z" fill="#121212"/>
<path d="M65.0488 0.184401C64.9643 0.184401 64.8958 0.253318 64.8958 0.338332V4.456C64.8958 4.54101 64.8274 4.60993 64.7429 4.60993H57.5655C57.481 4.60993 57.4125 4.54101 57.4125 4.456V0.338332C57.4125 0.253318 57.344 0.184401 57.2595 0.184401H52.82C52.7355 0.184401 52.667 0.253318 52.667 0.338332V12.9383C52.667 13.0233 52.7355 13.0922 52.82 13.0922H57.2595C57.344 13.0922 57.4125 13.0233 57.4125 12.9383V8.8206C57.4125 8.73558 57.481 8.66667 57.5655 8.66667H64.7429C64.8274 8.66667 64.8958 8.73558 64.8958 8.8206V12.9383C64.8958 13.0233 64.9643 13.0922 65.0488 13.0922H69.4884C69.5729 13.0922 69.6414 13.0233 69.6414 12.9383V0.338333C69.6414 0.253319 69.5729 0.184401 69.4884 0.184401H65.0488Z" fill="#121212"/>
<path d="M91.3332 0.338329C91.3332 0.253315 91.2647 0.184397 91.1802 0.184397H85.5839C85.5276 0.184397 85.4759 0.215517 85.4492 0.26541L81.6848 7.30825C81.6271 7.41627 81.4731 7.41627 81.4154 7.30825L77.651 0.26541C77.6243 0.215516 77.5725 0.184397 77.5163 0.184397H71.92C71.8355 0.184397 71.767 0.253314 71.767 0.338328V12.9383C71.767 13.0233 71.8355 13.0922 71.92 13.0922H76.3596C76.4441 13.0922 76.5125 13.0233 76.5125 12.9383V7.5315C76.5125 7.37364 76.7205 7.31807 76.7983 7.45514L79.9546 13.0146C79.9819 13.0626 80.0326 13.0922 80.0875 13.0922H83.0127C83.0676 13.0922 83.1183 13.0626 83.1456 13.0146L86.3019 7.45514C86.3797 7.31807 86.5877 7.37364 86.5877 7.5315V12.9383C86.5877 13.0233 86.6561 13.0922 86.7406 13.0922H91.1802C91.2647 13.0922 91.3332 13.0233 91.3332 12.9383V0.338329Z" fill="#121212"/>
<path d="M105.054 12.9929C105.076 13.0527 105.133 13.0922 105.197 13.0922H110.083C110.192 13.0922 110.266 12.9809 110.224 12.8795L105.057 0.27961C105.034 0.221989 104.978 0.184397 104.916 0.184397H98.0753C98.0133 0.184397 97.9575 0.221989 97.9339 0.27961L92.767 12.8795C92.7255 12.9809 92.7995 13.0922 92.9084 13.0922H97.7943C97.8579 13.0922 97.9148 13.0527 97.9374 12.9929L98.7386 10.8681C98.7611 10.8083 98.818 10.7688 98.8816 10.7688H104.11C104.173 10.7688 104.23 10.8083 104.253 10.8681L105.054 12.9929ZM100.238 7.44964C100.131 7.44964 100.057 7.34208 100.095 7.24141L101.352 3.88558C101.402 3.75274 101.589 3.75274 101.639 3.88558L102.896 7.24141C102.934 7.34208 102.86 7.44964 102.753 7.44964H100.238Z" fill="#121212"/>
<path d="M110.731 8.53759C110.646 8.53759 110.578 8.60857 110.58 8.69356C110.658 12.3976 113.57 13.2766 118.737 13.2766C123.975 13.2766 126.895 12.373 126.895 8.81418C126.895 5.43971 123.774 5.08936 118.737 4.88652C115.962 4.77588 115.506 4.79432 115.506 4.29645C115.506 3.79858 115.962 3.68794 118.189 3.68794C120.323 3.68794 121.421 3.81302 121.581 4.36552C121.605 4.44712 121.671 4.51773 121.755 4.51773H126.195C126.279 4.51773 126.348 4.44732 126.346 4.36234C126.258 1.17874 123.458 0 118.554 0C113.517 0 110.76 1.21702 110.76 4.05674C110.76 7.06241 112.969 8.02127 118.737 8.20567C121.73 8.29787 122.15 8.37163 122.15 8.92482C122.15 9.40425 121.73 9.58865 118.919 9.58865C116.16 9.58865 115.438 9.23264 115.337 8.69079C115.321 8.60725 115.255 8.53759 115.17 8.53759H110.731Z" fill="#121212"/>
<path d="M143.573 0.338328C143.573 0.253314 143.505 0.184397 143.42 0.184397H128.03C127.945 0.184397 127.877 0.253314 127.877 0.338328V4.0872C127.877 4.17222 127.945 4.24113 128.03 4.24113H133.199C133.284 4.24113 133.352 4.31005 133.352 4.39507V12.9383C133.352 13.0233 133.421 13.0922 133.505 13.0922H137.945C138.029 13.0922 138.098 13.0233 138.098 12.9383V4.39506C138.098 4.31005 138.166 4.24113 138.251 4.24113H143.42C143.505 4.24113 143.573 4.17222 143.573 4.0872V0.338328Z" fill="#121212"/>
<path d="M158.651 3.87234C158.736 3.87234 158.804 3.80342 158.804 3.71841V0.338328C158.804 0.253314 158.736 0.184397 158.651 0.184397H145.451C145.366 0.184397 145.298 0.253314 145.298 0.338328V12.9383C145.298 13.0233 145.366 13.0922 145.451 13.0922H158.651C158.736 13.0922 158.804 13.0233 158.804 12.9383V9.55818C158.804 9.47317 158.736 9.40425 158.651 9.40425H150.196C150.112 9.40425 150.043 9.33533 150.043 9.25032V8.3596C150.043 8.27459 150.112 8.20567 150.196 8.20567H158.651C158.736 8.20567 158.804 8.13675 158.804 8.05174V5.22485C158.804 5.13984 158.736 5.07092 158.651 5.07092H150.196C150.112 5.07092 150.043 5.002 150.043 4.91699V4.02627C150.043 3.94126 150.112 3.87234 150.196 3.87234H158.651Z" fill="#121212"/>
<path d="M175.66 5.12624C175.66 2.24965 173.67 0.184397 170.768 0.184397H160.882C160.798 0.184397 160.729 0.253314 160.729 0.338328V12.9383C160.729 13.0233 160.798 13.0922 160.882 13.0922H165.322C165.406 13.0922 165.475 13.0233 165.475 12.9383V10.222C165.475 10.137 165.543 10.0681 165.628 10.0681H168.18C168.234 10.0681 168.284 10.0969 168.312 10.1439L169.994 13.0164C170.021 13.0634 170.071 13.0922 170.125 13.0922H175.386C175.506 13.0922 175.579 12.9602 175.516 12.8577L173.478 9.51967C173.433 9.44619 173.457 9.35017 173.53 9.30394C174.856 8.45653 175.66 6.94689 175.66 5.12624ZM165.475 4.39507C165.475 4.31005 165.543 4.24113 165.628 4.24113H169.855C170.33 4.24113 170.914 4.24113 170.914 5.12624C170.914 6.01135 170.33 6.01135 169.855 6.01135H165.628C165.543 6.01135 165.475 5.94243 165.475 5.85741V4.39507Z" fill="#121212"/>
</svg>
