<svg width="176" height="14" fill="none" xmlns="http://www.w3.org/2000/svg">
    <path d="M21.649.184a.153.153 0 0 0-.147.111L19.031 8.8a.153.153 0 0 1-.293.002L16.147.293A.153.153 0 0 0 16 .184h-5.432a.153.153 0 0 0-.146.11L7.831 8.801a.153.153 0 0 1-.293-.002L5.067.295a.153.153 0 0 0-.147-.11H.153a.154.154 0 0 0-.145.201l4.098 12.6c.02.063.079.106.145.106h6.819a.153.153 0 0 0 .147-.112l1.92-6.798a.153.153 0 0 1 .294 0l1.92 6.798a.153.153 0 0 0 .148.112h6.819a.153.153 0 0 0 .145-.106l4.098-12.6a.154.154 0 0 0-.145-.202h-4.767ZM32.9.338a.153.153 0 0 0-.154-.154h-4.44a.153.153 0 0 0-.152.154v12.6c0 .085.068.154.152.154h4.44a.153.153 0 0 0 .153-.154V.338ZM34.775 8.538a.153.153 0 0 0-.151.156c.078 3.704 2.99 4.583 8.157 4.583 5.238 0 8.158-.904 8.158-4.463 0-3.374-3.12-3.725-8.158-3.927-2.775-.111-3.23-.093-3.23-.59 0-.498.455-.609 2.682-.609 2.135 0 3.232.125 3.393.678.023.081.089.152.173.152h4.44c.084 0 .153-.07.15-.156C50.303 1.18 47.503 0 42.6 0c-5.038 0-7.794 1.217-7.794 4.057 0 3.005 2.208 3.964 7.976 4.149 2.993.092 3.413.166 3.413.719 0 .48-.42.664-3.23.664-2.76 0-3.481-.356-3.583-.898-.016-.084-.082-.153-.166-.153h-4.44ZM65.049.184a.153.153 0 0 0-.153.154v4.118a.153.153 0 0 1-.153.154h-7.177a.153.153 0 0 1-.154-.154V.338a.153.153 0 0 0-.152-.154h-4.44a.153.153 0 0 0-.153.154v12.6c0 .085.069.154.153.154h4.44a.153.153 0 0 0 .153-.154V8.821c0-.085.068-.154.153-.154h7.177c.084 0 .153.069.153.154v4.117c0 .085.068.154.153.154h4.44a.153.153 0 0 0 .152-.154V.338a.153.153 0 0 0-.153-.154h-4.44ZM91.333.338a.153.153 0 0 0-.153-.154h-5.596a.153.153 0 0 0-.135.081l-3.764 7.043a.152.152 0 0 1-.27 0L77.651.265a.153.153 0 0 0-.135-.08H71.92a.153.153 0 0 0-.153.153v12.6c0 .085.069.154.153.154h4.44a.153.153 0 0 0 .153-.154V7.531c0-.157.207-.213.285-.076l3.157 5.56a.153.153 0 0 0 .133.077h2.925c.055 0 .105-.03.133-.077l3.156-5.56c.078-.137.286-.081.286.077v5.406c0 .085.068.154.153.154h4.44a.153.153 0 0 0 .152-.154V.338ZM105.054 12.993c.022.06.079.1.143.1h4.886a.153.153 0 0 0 .141-.213L105.057.28a.152.152 0 0 0-.141-.096h-6.84a.153.153 0 0 0-.142.096l-5.167 12.6a.154.154 0 0 0 .141.212h4.886c.064 0 .12-.04.143-.1l.802-2.124c.022-.06.079-.1.143-.1h5.228c.063 0 .12.04.143.1l.801 2.125Zm-4.816-5.543a.154.154 0 0 1-.143-.209l1.257-3.355a.153.153 0 0 1 .287 0l1.257 3.355a.154.154 0 0 1-.143.209h-2.515ZM110.731 8.538a.152.152 0 0 0-.151.156c.078 3.704 2.99 4.583 8.157 4.583 5.238 0 8.158-.904 8.158-4.463 0-3.374-3.121-3.725-8.158-3.927-2.775-.111-3.231-.093-3.231-.59 0-.498.456-.61 2.683-.61 2.134 0 3.232.126 3.392.679.024.081.09.152.174.152h4.44c.084 0 .153-.07.151-.156C126.258 1.18 123.458 0 118.554 0c-5.037 0-7.794 1.217-7.794 4.057 0 3.005 2.209 3.964 7.977 4.149 2.993.092 3.413.166 3.413.719 0 .48-.42.664-3.231.664-2.759 0-3.481-.356-3.582-.898-.016-.084-.082-.153-.167-.153h-4.439ZM143.573.338a.153.153 0 0 0-.153-.154h-15.39a.153.153 0 0 0-.153.154v3.75c0 .084.068.153.153.153h5.169c.085 0 .153.07.153.154v8.543c0 .085.069.154.153.154h4.44a.154.154 0 0 0 .153-.154V4.395c0-.085.068-.154.153-.154h5.169a.153.153 0 0 0 .153-.154V.338ZM158.651 3.872a.153.153 0 0 0 .153-.154V.338a.153.153 0 0 0-.153-.154h-13.2a.153.153 0 0 0-.153.154v12.6c0 .085.068.154.153.154h13.2a.153.153 0 0 0 .153-.154v-3.38a.153.153 0 0 0-.153-.154h-8.455a.154.154 0 0 1-.153-.154v-.89c0-.085.069-.154.153-.154h8.455a.153.153 0 0 0 .153-.154V5.225a.153.153 0 0 0-.153-.154h-8.455a.154.154 0 0 1-.153-.154v-.89c0-.086.069-.155.153-.155h8.455ZM175.66 5.126c0-2.876-1.99-4.942-4.892-4.942h-9.886a.154.154 0 0 0-.153.154v12.6c0 .085.069.154.153.154h4.44a.154.154 0 0 0 .153-.154v-2.716c0-.085.068-.154.153-.154h2.552c.054 0 .104.029.132.076l1.682 2.872a.151.151 0 0 0 .131.076h5.261c.12 0 .193-.132.13-.234l-2.038-3.338a.158.158 0 0 1 .052-.216c1.326-.847 2.13-2.357 2.13-4.178Zm-10.185-.73c0-.086.068-.155.153-.155h4.227c.475 0 1.059 0 1.059.885s-.584.885-1.059.885h-4.227a.153.153 0 0 1-.153-.154V4.395Z" fill="#121212"/>
</svg>
