<?xml version="1.0" encoding="utf-8"?><svg viewBox="0 0 25 20" xmlns="http://www.w3.org/2000/svg" xmlns:xlink="http://www.w3.org/1999/xlink"><style>:root>svg{display:none}:root>svg:target{display:block}</style><svg viewBox="0 0 18 15" id="icon-delete" xmlns="http://www.w3.org/2000/svg"><path d="M3.5 2.98h11v1h-11zm4-2h3v1h-3zm0 4h1v6h-1zm2 0h1v6h-1z"/><path fill-rule="evenodd" clip-rule="evenodd" d="M12.5 3.98h-7v8a1 1 0 001 1h5a1 1 0 001-1v-8zm-8-1v9a2 2 0 002 2h5a2 2 0 002-2v-9h-9z"/></svg><svg viewBox="0 0 25 20" id="icon-heart" xmlns="http://www.w3.org/2000/svg"><path d="M12.341 1.654c2.773-2.282 7.059-2.206 9.73.247 2.671 2.454 2.763 6.362.28 8.911L12.338 20l-10.01-9.188c-2.484-2.55-2.39-6.464.279-8.911 2.674-2.45 6.951-2.532 9.733-.247zM20.4 3.43c-1.77-1.625-4.628-1.691-6.482-.166L12.342 4.56l-1.577-1.295c-1.86-1.527-4.711-1.46-6.487.167C2.52 5.044 2.431 7.625 4.052 9.33l8.288 7.607 8.288-7.606c1.622-1.706 1.534-4.284-.228-5.901z"/></svg></svg>